<svg width="1799" height="1803" viewBox="0 0 1799 1803" fill="none" xmlns="http://www.w3.org/2000/svg">
<path d="M150.533 606.848C102.556 579.492 41.4859 596.208 14.1295 644.185C-13.2268 692.163 3.48972 753.233 51.467 780.589L150.533 606.848ZM898.622 222.636L980.436 280.137L980.436 280.137L898.622 222.636ZM195.802 1488.41L107.782 1440.95C83.9595 1485.13 96.5795 1540.13 137.281 1569.5C177.983 1598.88 234.153 1593.53 268.578 1557L195.802 1488.41ZM1502.54 100.33L1427.89 33.7931L1427.89 33.7933L1502.54 100.33ZM771.049 1702.6L680.329 1660.53C659.396 1705.67 674.836 1759.33 716.557 1786.45C758.278 1813.56 813.587 1805.88 846.336 1768.41L771.049 1702.6ZM1675.18 1108.26C1728.95 1120.86 1782.76 1087.49 1795.36 1033.72C1807.96 979.945 1774.59 926.138 1720.82 913.534L1675.18 1108.26ZM51.467 780.589C165.595 845.664 296.792 806.785 396.513 757.485C502.149 705.262 609.11 623.423 699.528 545.226C790.914 466.191 870.237 386.593 920.222 335.703C946.861 308.583 961.805 293.125 968.514 286.9C970.889 284.696 967.785 287.86 962.196 291.705C960.434 292.917 956.657 295.433 951.454 298.071C948.058 299.793 935.053 306.369 916.701 308.21C895.436 310.343 849.75 305.992 822.141 261.744C802.013 229.486 807.453 198.235 808.376 192.709C810.061 182.62 812.948 175.2 814.065 172.43C815.484 168.911 816.799 166.276 817.501 164.915C818.273 163.419 818.901 162.317 819.239 161.734C819.599 161.115 819.846 160.718 819.922 160.594C819.997 160.475 819.199 161.733 816.808 165.134L980.436 280.137C983.495 275.785 986.777 270.995 989.627 266.427C990.996 264.23 993.107 260.749 995.239 256.616C995.741 255.644 1002.77 242.881 1005.64 225.649C1006.62 219.782 1012.04 188.284 991.819 155.87C964.112 111.466 918.252 107.05 896.737 109.209C878.136 111.075 864.805 117.765 861.01 119.69C855.406 122.531 851.156 125.338 848.845 126.927C841.064 132.28 834.589 138.333 832.479 140.29C821.248 150.711 800.422 172.258 777.539 195.556C728.48 245.502 653.75 320.396 568.699 393.951C482.681 468.344 390.822 537.193 307.878 578.198C219.02 622.128 171.878 619.019 150.533 606.848L51.467 780.589ZM816.808 165.134C791.366 201.334 733.539 301.558 664.85 423.75C594.604 548.712 509.27 703.435 426.805 854.015C344.312 1004.65 264.561 1151.37 205.443 1260.42C175.882 1314.95 151.473 1360.07 134.451 1391.57C125.941 1407.31 119.277 1419.65 114.739 1428.06C112.47 1432.26 110.732 1435.48 109.561 1437.66C108.976 1438.74 108.532 1439.56 108.234 1440.12C108.085 1440.39 107.972 1440.6 107.897 1440.74C107.859 1440.81 107.831 1440.86 107.812 1440.9C107.802 1440.92 107.795 1440.93 107.79 1440.94C107.785 1440.95 107.782 1440.95 195.802 1488.41C283.821 1535.88 283.823 1535.87 283.828 1535.86C283.832 1535.86 283.839 1535.84 283.848 1535.83C283.866 1535.79 283.894 1535.74 283.931 1535.67C284.005 1535.54 284.115 1535.33 284.263 1535.06C284.557 1534.51 284.998 1533.7 285.579 1532.62C286.743 1530.46 288.473 1527.25 290.735 1523.06C295.257 1514.69 301.905 1502.38 310.398 1486.66C327.385 1455.23 351.753 1410.19 381.268 1355.74C440.305 1246.84 519.911 1100.38 602.223 950.081C684.564 799.725 769.486 645.757 839.192 521.755C910.457 394.982 962.282 305.969 980.436 280.137L816.808 165.134ZM195.802 1488.41C268.578 1557 268.583 1556.99 268.592 1556.98C268.602 1556.97 268.617 1556.96 268.636 1556.94C268.675 1556.89 268.734 1556.83 268.811 1556.75C268.967 1556.59 269.199 1556.34 269.508 1556.01C270.124 1555.36 271.045 1554.38 272.259 1553.09C274.687 1550.52 278.29 1546.69 282.991 1541.7C292.392 1531.73 306.184 1517.09 323.745 1498.46C358.868 1461.18 409.071 1407.91 469.388 1343.89C590.023 1215.86 751.121 1044.86 912.97 873.031C1235.49 530.61 1563.98 181.694 1577.2 166.867L1427.89 33.7933C1428.02 33.649 1426.9 34.879 1423.47 38.5632C1420.44 41.8244 1416.23 46.3292 1410.9 52.0272C1400.25 63.4109 1385.28 79.3626 1366.61 99.2474C1329.27 139.007 1277.22 194.357 1215.41 260.048C1091.8 391.424 929.222 564.078 767.382 735.903C605.544 907.725 444.455 1078.71 323.824 1206.74C263.509 1270.75 213.309 1324.02 178.188 1361.29C160.628 1379.93 146.837 1394.56 137.436 1404.54C132.736 1409.53 129.133 1413.35 126.706 1415.93C125.492 1417.21 124.572 1418.19 123.955 1418.85C123.647 1419.17 123.415 1419.42 123.259 1419.58C123.182 1419.67 123.123 1419.73 123.084 1419.77C123.065 1419.79 123.05 1419.81 123.04 1419.82C123.031 1419.83 123.026 1419.83 195.802 1488.41ZM1577.2 166.867C1575.31 168.98 1570.93 173.747 1564.42 178.838C1560.85 181.632 1542.32 196.436 1513.35 199.46C1498.97 199.917 1468.48 193.85 1453.27 186.756C1440.12 177.745 1420.77 156.867 1414.29 146.094C1402.99 124.303 1403.11 104.567 1403.1 100.306C1403.1 87.9969 1405.53 78.626 1405.71 77.8534C1406.39 75.0243 1407.02 73.0091 1407.22 72.3819C1407.77 70.6278 1407.65 71.2528 1405.54 76.4901C1401.91 85.5013 1395.52 100.491 1386.38 121.369C1368.29 162.722 1340.97 223.668 1307.28 298.075C1239.95 446.738 1147.87 647.637 1054.95 849.566C962.052 1051.45 868.395 1254.19 797.958 1406.48C762.741 1482.61 733.331 1546.13 712.727 1590.61C702.425 1612.85 694.324 1630.34 688.799 1642.26C686.037 1648.22 683.919 1652.78 682.491 1655.86C681.778 1657.4 681.237 1658.57 680.874 1659.35C680.693 1659.74 680.557 1660.04 680.466 1660.23C680.42 1660.33 680.386 1660.41 680.363 1660.45C680.352 1660.48 680.343 1660.5 680.337 1660.51C680.332 1660.52 680.329 1660.53 771.049 1702.6C861.77 1744.67 861.773 1744.66 861.779 1744.65C861.784 1744.63 861.793 1744.62 861.805 1744.59C861.828 1744.54 861.862 1744.47 861.908 1744.37C862 1744.17 862.137 1743.87 862.319 1743.48C862.683 1742.7 863.225 1741.53 863.94 1739.98C865.37 1736.9 867.491 1732.32 870.257 1726.36C875.787 1714.43 883.894 1696.93 894.203 1674.68C914.82 1630.17 944.246 1566.62 979.481 1490.44C1049.95 1338.09 1143.66 1135.22 1236.64 933.171C1329.59 731.169 1421.88 529.819 1489.46 380.58C1523.22 306.037 1550.99 244.119 1569.62 201.529C1578.85 180.435 1586.23 163.182 1591.03 151.286C1593.13 146.069 1595.89 139.074 1597.9 132.734C1598.46 130.96 1599.36 127.988 1600.22 124.395C1600.59 122.858 1603.11 112.916 1603.1 100.232C1603.1 95.7828 1603.19 75.9075 1591.84 54.027C1585.34 43.2091 1565.96 22.2987 1552.78 13.2681C1537.54 6.15401 1507.01 0.0791066 1492.58 0.541075C1463.52 3.5751 1444.86 18.4391 1441.16 21.3423C1434.51 26.5424 1429.96 31.4693 1427.89 33.7931L1577.2 166.867ZM846.336 1768.41C964.329 1633.45 1099.52 1451.56 1255.86 1304.21C1332.55 1231.93 1408.28 1174.26 1481.16 1139.24C1553.21 1104.61 1616.96 1094.61 1675.18 1108.26L1720.82 913.534C1605.53 886.508 1494.28 911.036 1394.53 958.975C1295.6 1006.52 1202.73 1079.46 1118.68 1158.67C953.55 1314.31 798.778 1518.94 695.763 1636.78L846.336 1768.41Z" fill="#42FF00" fill-opacity="0.14"/>
</svg>
